<?xml version="1.0" encoding="UTF-8"?>
<svg  viewBox="0 0 24 32" version="1.1" xmlns="http://www.w3.org/2000/svg" xmlns:xlink="http://www.w3.org/1999/xlink">
    <title>拉动</title>
    <g id="页面-1" stroke="none" stroke-width="1" fill="none" fill-rule="evenodd">
        <g id="DxFarm" transform="translate(-2151.000000, -976.000000)">
            <g id="拉动" transform="translate(2151.000000, 976.000000)">
                <path d="M12,26.6127074 C12.5971876,26.6127074 24,19.8983416 24,12 C24,4.10165841 18.627417,0 12,0 C5.372583,0 0,4.02362848 0,12 C0,19.9763715 11.4028124,26.6127074 12,26.6127074 Z" id="椭圆形" fill="#3F78FE"></path>
                <g id="编组" transform="translate(5.000000, 8.000000)" fill="#FFFFFF">
                    <polygon id="Fill-1" points="0.45244872 0.3689148 -2.088e-05 0.7300692 0.14613912 1.0432692 0.48021912 0.9249492 0.47332872 0.7934052 1.37109912 0.2150988 0.86308872 0.1175892"></polygon>
                    <polygon id="Fill-2" points="1.68426432 2.784e-05 1.37106432 0.21509184 0.48018432 0.79339824 1.03698432 1.07186784 1.26673392 1.04326224 2.20633392 2.92942224 2.58913392 0.85534224 2.71441392 0.84149184 2.55426432 0.27146784 2.44297392 0.34795824 2.24809392 0.11062224"></polygon>
                    <polygon id="Fill-3" points="5.26871304 2.2543788 4.25255304 2.4221148 2.92319304 1.8931548 2.56127304 1.0154988 2.20631304 2.9294292 4.10639304 4.8302748 3.97352664 5.1497388 3.04847304 5.3793492 2.90231304 5.8108692 3.24335304 6.3329388 3.08327304 6.4721388 3.09023304 6.4721388 1.57991304 8.3443092 0.73079304 8.3241252 1.70526264 8.9853948 1.79567304 8.7486852 3.35471304 7.2238188 3.61919304 6.9043548 3.71663304 7.3706748 4.16214264 7.9545492 4.44047304 8.5531092 4.60055304 7.3281492 4.28735304 7.3281492 3.87044904 6.5987412 4.67015304 5.6166852 7.85094264 4.8998748 9.21503304 4.9269492 9.80663304 5.3237388 9.73014264 6.3057252 9.93191304 6.5145252 10.4052626 7.9336692 9.22206264 9.0403092 8.55383304 9.1377492 9.58391304 9.6117948 9.63959304 9.2073492 11.149913 7.7882748 10.634873 5.8665492 10.760153 6.3266748 10.878473 6.0273252 13.307513 7.6281252 13.196153 6.7790748 12.0198434 5.6166852 11.2961426 3.1529148 10.4538434 2.4150852 9.93191304 1.1762052 8.86014264 0.5909388 7.96926264 1.9349148 8.03183304 1.8367788 7.58646264 1.7810988 6.97391304 0.3062052 6.62584344 0.2297148"></polygon>
                    <polygon id="Fill-4" points="12.8774059 7.7479068 13.1126539 8.9853252 12.5419339 9.3681252 13.6068139 9.3960348 13.6068139 9.3958956 13.4884939 9.1175652 13.3074643 7.6281252 12.6253843 7.1826852"></polygon>
                </g>
            </g>
        </g>
    </g>
</svg>